<svg viewBox="0 0 320 320" xmlns="http://www.w3.org/2000/svg" role="img" aria-label="Happy Yale bulldog head tilt">
  <defs>
    <radialGradient id="b3bg" cx="50%" cy="40%" r="72%">
      <stop offset="0%" stop-color="#ffe3d1"/><stop offset="100%" stop-color="#ffc0a0"/>
    </radialGradient>
    <linearGradient id="b3fur" x1="0" y1="0" x2="0" y2="1">
      <stop offset="0%" stop-color="#f5e2cb"/><stop offset="100%" stop-color="#dcba93"/>
    </linearGradient>
  </defs>
  <rect width="320" height="320" rx="26" fill="url(#b3bg)"/>
  <ellipse cx="160" cy="290" rx="108" ry="18" fill="#a85a34" opacity="0.18"/>
  <g transform="rotate(-10 160 160)">
    <!-- ears -->
    <path d="M78 104 q-18 24 4 58 q28 -10 32 -38 Z" fill="#c69a6e"/>
    <path d="M242 104 q18 24 -4 58 q-28 -10 -32 -38 Z" fill="#c69a6e"/>
    <!-- head -->
    <path d="M86 150 C86 100 118 74 160 74 C202 74 234 100 234 150 C234 206 200 240 160 240 C120 240 86 206 86 150 Z" fill="url(#b3fur)"/>
    <path d="M114 128 q24 -16 44 -2 M164 126 q22 -14 44 2" stroke="#b8946a" stroke-width="5" fill="none" stroke-linecap="round"/>
    <!-- happy arched eyes -->
    <path d="M118 148 q14 -16 30 0" stroke="#2a2320" stroke-width="7" fill="none" stroke-linecap="round"/>
    <path d="M172 148 q14 -16 30 0" stroke="#2a2320" stroke-width="7" fill="none" stroke-linecap="round"/>
    <ellipse cx="160" cy="190" rx="54" ry="40" fill="#fbeedd"/>
    <path d="M160 170 q-16 8 -2 18 q-18 6 2 16 q20 -10 2 -16 q14 -10 -2 -18 Z" fill="#3a2a22"/>
    <!-- big open smile + tongue -->
    <path d="M118 206 q42 44 84 0 q-42 20 -84 0 Z" fill="#5a3326"/>
    <path d="M140 214 q20 34 40 0 Z" fill="#ff8fa8"/>
    <rect x="146" y="206" width="8" height="12" rx="2" fill="#fff"/>
    <rect x="166" y="206" width="8" height="12" rx="2" fill="#fff"/>
  </g>
  <!-- bandana collar -->
  <path d="M96 244 q64 34 128 0 l-10 24 q-54 26 -108 0 Z" fill="#00356b"/>
</svg>
