<svg viewBox="0 0 400 400" xmlns="http://www.w3.org/2000/svg" role="img" aria-label="Campus Customs spokesman in a Yale quarter-zip">
  <defs>
    <radialGradient id="s3bg" cx="50%" cy="35%" r="75%">
      <stop offset="0%" stop-color="#d4f7e4"/><stop offset="100%" stop-color="#a9eccb"/>
    </radialGradient>
    <linearGradient id="s3zip" x1="0" y1="0" x2="0" y2="1">
      <stop offset="0%" stop-color="#15528f"/><stop offset="100%" stop-color="#00356b"/>
    </linearGradient>
    <linearGradient id="s3skin" x1="0" y1="0" x2="0" y2="1">
      <stop offset="0%" stop-color="#efc6a0"/><stop offset="100%" stop-color="#d9a079"/>
    </linearGradient>
  </defs>
  <rect width="400" height="400" rx="28" fill="url(#s3bg)"/>
  <ellipse cx="200" cy="356" rx="150" ry="26" fill="#1c6b49" opacity="0.18"/>
  <!-- quarter-zip -->
  <path d="M92 400 C98 300 130 272 200 272 C270 272 302 300 308 400 Z" fill="url(#s3zip)"/>
  <path d="M184 276 l16 70 l16 -70 Z" fill="#cdd6e0"/>
  <rect x="197" y="276" width="6" height="74" fill="#9aa7b5"/>
  <path d="M172 276 q28 24 56 0 l-8 22 q-20 12 -40 0 Z" fill="#0a3f7a"/>
  <!-- neck + head -->
  <rect x="182" y="228" width="36" height="48" rx="16" fill="url(#s3skin)"/>
  <ellipse cx="200" cy="178" rx="63" ry="69" fill="url(#s3skin)"/>
  <!-- tousled hair -->
  <path d="M138 158 C136 100 264 100 262 158 C250 122 232 118 200 118 C168 118 150 122 138 158 Z" fill="#2f2117"/>
  <path d="M150 128 l-8 -14 M200 112 l0 -16 M250 128 l8 -14" stroke="#2f2117" stroke-width="6" stroke-linecap="round"/>
  <!-- intense squint + smirk -->
  <path d="M160 166 q18 -8 34 2" stroke="#2f2117" stroke-width="5" fill="none" stroke-linecap="round"/>
  <path d="M206 168 q18 -10 34 -2" stroke="#2f2117" stroke-width="5" fill="none" stroke-linecap="round"/>
  <path d="M166 182 q12 6 24 0" stroke="#2a2320" stroke-width="5" fill="none" stroke-linecap="round"/>
  <path d="M210 182 q12 6 24 0" stroke="#2a2320" stroke-width="5" fill="none" stroke-linecap="round"/>
  <path d="M198 186 l-6 16 h14 Z" fill="#c88f68"/>
  <path d="M180 212 q20 14 40 2" stroke="#9c5a3c" stroke-width="5" fill="none" stroke-linecap="round"/>
  <path d="M152 196 C168 232 232 232 248 196 C240 222 160 222 152 196 Z" fill="#2f2117" opacity="0.3"/>
</svg>
